<svg width="33" height="34" viewBox="0 0 33 34" fill="none" xmlns="http://www.w3.org/2000/svg">
<path d="M30.7507 0.989502H1.29157C0.583114 0.989502 0.0107422 1.56187 0.0107422 2.27033V31.7294C0.0107422 32.4379 0.583114 33.0103 1.29157 33.0103H30.7507C31.4591 33.0103 32.0315 32.4379 32.0315 31.7294V2.27033C32.0315 1.56187 31.4591 0.989502 30.7507 0.989502ZM27.0523 10.3356H24.4946C22.4893 10.3356 22.1011 11.2882 22.1011 12.6891V15.7751H26.8882L26.2638 20.6062H22.1011V33.0103H17.1098V20.6102H12.9351V15.7751H17.1098V12.2128C17.1098 8.0781 19.6355 5.82464 23.3259 5.82464C25.095 5.82464 26.612 5.95673 27.0563 6.01676V10.3356H27.0523Z" fill="white"/>
</svg>
