<svg width="33" height="33" viewBox="0 0 33 33" fill="none" xmlns="http://www.w3.org/2000/svg">
<path d="M31.7106 0.385254H2.25153C1.54307 0.385254 0.970703 0.957625 0.970703 1.66609V31.1252C0.970703 31.8337 1.54307 32.406 2.25153 32.406H31.7106C32.4191 32.406 32.9915 31.8337 32.9915 31.1252V1.66609C32.9915 0.957625 32.4191 0.385254 31.7106 0.385254ZM28.0122 9.73132H25.4546C23.4493 9.73132 23.061 10.6839 23.061 12.0848V15.1708H27.8481L27.2237 20.002H23.061V32.406H18.0698V20.006H13.8951V15.1708H18.0698V11.6085C18.0698 7.47385 20.5954 5.22039 24.2858 5.22039C26.055 5.22039 27.572 5.35248 28.0163 5.41252V9.73132H28.0122Z" fill="#2091F9"/>
</svg>
