<svg width="49" height="47" viewBox="0 0 49 47" fill="none" xmlns="http://www.w3.org/2000/svg">
<path d="M47.6381 4.76792L44.2323 1.36209C43.2918 0.37084 41.6397 0.37084 40.6485 1.36209L17.8752 24.1354L24.8647 31.125L47.6381 8.35167C48.6293 7.36042 48.6293 5.70834 47.6381 4.76792ZM12.7918 28.5833C10.7696 28.5833 8.83011 29.3867 7.40014 30.8167C5.97018 32.2466 5.16683 34.1861 5.16683 36.2083C5.16683 39.5379 2.2185 41.2917 0.0834961 41.2917C2.42183 44.3925 6.43766 46.375 10.2502 46.375C12.9465 46.375 15.5325 45.3039 17.4391 43.3973C19.3457 41.4906 20.4168 38.9047 20.4168 36.2083C20.4168 34.1861 19.6135 32.2466 18.1835 30.8167C16.7536 29.3867 14.8141 28.5833 12.7918 28.5833Z" fill="#2091F9"/>
</svg>
