<svg width="45" height="42" viewBox="0 0 45 42" fill="none" xmlns="http://www.w3.org/2000/svg">
<path d="M18.2496 41.6502C22.4029 40.0168 21.4929 35.5135 19.3929 32.6668C17.3163 29.7502 14.4463 27.7435 11.5529 25.8068C9.48853 24.5057 7.64529 22.883 6.09294 21.0002C5.43961 20.2302 4.10961 18.8068 5.46294 18.5268C6.83961 18.2468 9.21961 19.6002 10.4329 20.1135C12.5563 21.0002 14.6563 22.0268 16.6163 23.2402L18.9729 19.2735C15.3329 16.8702 10.6663 14.7468 6.32628 14.1168C3.85294 13.7435 1.23961 14.2568 0.39961 16.9402C-0.347056 19.2502 0.842944 21.5835 2.19628 23.4035C5.39294 27.6735 10.3629 29.7268 14.0729 33.4135C14.8663 34.1835 15.8229 35.0935 16.2896 36.1668C16.7796 37.1935 16.6629 37.2635 15.5663 37.2635C12.6729 37.2635 9.05628 35.0002 6.69961 33.5068L4.34294 37.4735C7.91294 39.6668 13.8863 43.0968 18.2496 41.6502ZM44.1263 5.25016C44.6396 4.73682 44.6396 3.89682 44.1263 3.40682L41.0929 0.373491C40.8486 0.137953 40.5224 0.00634766 40.1829 0.00634766C39.8435 0.00634766 39.5173 0.137953 39.2729 0.373491L36.8929 2.75349L41.7463 7.60682L44.1263 5.25016ZM21.1663 18.4802V23.3335H26.0196L40.3696 8.98349L35.5163 4.13016L21.1663 18.4802Z" fill="#2091F9"/>
</svg>
