<svg width="33" height="34" viewBox="0 0 33 34" fill="none" xmlns="http://www.w3.org/2000/svg">
<path d="M30.738 0.989502H1.27888C0.570418 0.989502 -0.00195312 1.56187 -0.00195312 2.27033V31.7294C-0.00195312 32.4379 0.570418 33.0103 1.27888 33.0103H30.738C31.4465 33.0103 32.0188 32.4379 32.0188 31.7294V2.27033C32.0188 1.56187 31.4465 0.989502 30.738 0.989502ZM9.49621 28.2752H4.74513V12.9933H9.49621V28.2752ZM7.12267 10.9039C6.57802 10.9039 6.04561 10.7424 5.59275 10.4398C5.13989 10.1372 4.78693 9.70716 4.5785 9.20398C4.37007 8.70079 4.31554 8.14709 4.4218 7.61291C4.52805 7.07873 4.79032 6.58805 5.17545 6.20293C5.56057 5.8178 6.05125 5.55553 6.58543 5.44927C7.11962 5.34302 7.67331 5.39755 8.1765 5.60598C8.67969 5.81441 9.10977 6.16737 9.41236 6.62023C9.71495 7.07308 9.87646 7.6055 9.87646 8.15015C9.87245 9.67113 8.63965 10.9039 7.12267 10.9039ZM27.2838 28.2752H22.5367V20.8424C22.5367 19.0692 22.5047 16.7918 20.0671 16.7918C17.5975 16.7918 17.2172 18.721 17.2172 20.7143V28.2752H12.4741V12.9933H17.0291V15.0826H17.0931C17.7255 13.8819 19.2746 12.613 21.5881 12.613C26.3992 12.613 27.2838 15.7791 27.2838 19.8938V28.2752Z" fill="white"/>
</svg>
