<svg width="33" height="33" viewBox="0 0 33 33" fill="none" xmlns="http://www.w3.org/2000/svg">
<path d="M31.698 0.385254H2.23884C1.53038 0.385254 0.958008 0.957625 0.958008 1.66609V31.1252C0.958008 31.8337 1.53038 32.406 2.23884 32.406H31.698C32.4064 32.406 32.9788 31.8337 32.9788 31.1252V1.66609C32.9788 0.957625 32.4064 0.385254 31.698 0.385254ZM10.4562 27.671H5.70509V12.389H10.4562V27.671ZM8.08263 10.2997C7.53798 10.2997 7.00557 10.1382 6.55271 9.83559C6.09985 9.533 5.74689 9.10292 5.53846 8.59973C5.33004 8.09654 5.2755 7.54285 5.38176 7.00866C5.48801 6.47448 5.75029 5.9838 6.13541 5.59868C6.52053 5.21355 7.01121 4.95128 7.54539 4.84503C8.07958 4.73877 8.63327 4.7933 9.13646 5.00173C9.63965 5.21016 10.0697 5.56312 10.3723 6.01598C10.6749 6.46884 10.8364 7.00125 10.8364 7.5459C10.8324 9.06689 9.59962 10.2997 8.08263 10.2997ZM28.2437 27.671H23.4966V20.2381C23.4966 18.465 23.4646 16.1875 21.027 16.1875C18.5574 16.1875 18.1772 18.1168 18.1772 20.1101V27.671H13.4341V12.389H17.9891V14.4784H18.0531C18.6855 13.2776 20.2345 12.0088 22.548 12.0088C27.3591 12.0088 28.2437 15.1748 28.2437 19.2895V27.671Z" fill="#2091F9"/>
</svg>
