<svg width="46" height="47" viewBox="0 0 46 47" fill="none" xmlns="http://www.w3.org/2000/svg">
<path d="M23.0002 27.1366C27.2283 27.1366 30.6668 23.6981 30.6668 19.4699C30.6668 15.2417 27.2283 11.8032 23.0002 11.8032C18.772 11.8032 15.3335 15.2417 15.3335 19.4699C15.3335 23.6981 18.772 27.1366 23.0002 27.1366ZM23.0002 15.6366C25.1142 15.6366 26.8335 17.3558 26.8335 19.4699C26.8335 21.584 25.1142 23.3032 23.0002 23.3032C20.8861 23.3032 19.1668 21.584 19.1668 19.4699C19.1668 17.3558 20.8861 15.6366 23.0002 15.6366Z" fill="white"/>
<path d="M21.8883 42.1136C22.2127 42.3452 22.6014 42.4697 23 42.4697C23.3986 42.4697 23.7873 42.3452 24.1117 42.1136C24.6943 41.7015 38.3889 31.8134 38.3333 19.4701C38.3333 11.0156 31.4544 4.13672 23 4.13672C14.5456 4.13672 7.66667 11.0156 7.66667 19.4605C7.61109 31.8134 21.3057 41.7015 21.8883 42.1136ZM23 7.97005C29.3423 7.97005 34.5 13.1278 34.5 19.4796C34.5403 27.9858 26.0897 35.6237 23 38.1288C19.9123 35.6218 11.4598 27.982 11.5 19.4701C11.5 13.1278 16.6578 7.97005 23 7.97005Z" fill="white"/>
</svg>
