<svg width="34" height="28" viewBox="0 0 34 28" fill="none" xmlns="http://www.w3.org/2000/svg">
<path d="M33.645 4.08105C32.4202 4.60939 31.0873 4.98964 29.7144 5.13773C31.1398 4.29093 32.2072 2.95311 32.7164 1.37529C31.3788 2.17096 29.9136 2.7289 28.3855 3.02436C27.7469 2.34162 26.9745 1.79772 26.1165 1.42655C25.2585 1.05538 24.3332 0.864895 23.3983 0.86696C19.6159 0.86696 16.5739 3.93295 16.5739 7.69539C16.5739 8.22373 16.6379 8.75208 16.742 9.26041C11.0783 8.96421 6.02705 6.25846 2.66887 2.11577C2.05697 3.16091 1.73632 4.35092 1.74026 5.56201C1.74026 7.93154 2.94505 10.0209 4.78224 11.2497C3.69955 11.2071 2.64222 10.9095 1.69624 10.3811V10.4652C1.69624 13.7833 4.04176 16.5331 7.16779 17.1655C6.58084 17.318 5.97704 17.396 5.37062 17.3977C4.92633 17.3977 4.50606 17.3537 4.08178 17.2936C4.94634 19.9994 7.46398 21.9647 10.4619 22.0287C8.1164 23.8659 5.17849 24.9466 1.98843 24.9466C1.41605 24.9466 0.887711 24.9266 0.339355 24.8625C3.36532 26.8038 6.95565 27.9245 10.8222 27.9245C23.3743 27.9245 30.2428 17.5258 30.2428 8.49991C30.2428 8.20372 30.2428 7.90753 30.2227 7.61134C31.5516 6.63871 32.7164 5.43392 33.645 4.08105Z" fill="#2091F9"/>
</svg>
