<svg width="34" height="28" viewBox="0 0 34 28" fill="none" xmlns="http://www.w3.org/2000/svg">
<path d="M33.685 3.68529C32.4602 4.21364 31.1273 4.59388 29.7545 4.74198C31.1798 3.89517 32.2472 2.55736 32.7564 0.979538C31.4189 1.77521 29.9536 2.33315 28.4256 2.62861C27.787 1.94587 27.0146 1.40197 26.1565 1.0308C25.2985 0.65963 24.3732 0.469143 23.4384 0.471208C19.6559 0.471208 16.6139 3.5372 16.6139 7.29964C16.6139 7.82798 16.678 8.35632 16.782 8.86465C11.1184 8.56846 6.06708 5.86271 2.70891 1.72002C2.09701 2.76516 1.77636 3.95517 1.7803 5.16625C1.7803 7.53579 2.98508 9.62515 4.82228 10.8539C3.73959 10.8113 2.68226 10.5137 1.73627 9.98538V10.0694C1.73627 13.3876 4.0818 16.1374 7.20782 16.7698C6.62088 16.9222 6.01708 17.0002 5.41066 17.0019C4.96637 17.0019 4.5461 16.9579 4.12182 16.8979C4.98638 19.6036 7.50402 21.5689 10.502 21.6329C8.15644 23.4701 5.21853 24.5508 2.02846 24.5508C1.45609 24.5508 0.92775 24.5308 0.379395 24.4668C3.40536 26.408 6.99569 27.5288 10.8622 27.5288C23.4143 27.5288 30.2828 17.13 30.2828 8.10416C30.2828 7.80797 30.2828 7.51178 30.2628 7.21558C31.5916 6.24295 32.7564 5.03817 33.685 3.68529Z" fill="white"/>
</svg>
